<svg width="24" height="24" viewBox="0 0 24 24" fill="none" xmlns="http://www.w3.org/2000/svg">
<path d="M9.23438 22.125H7.35938V16.6875H9.23438V22.125ZM9.23438 9.23438H7.35938V14.8594H9.23438V9.23438ZM9.23438 1.82812H7.35938V7.35938H9.23438V1.82812ZM1.875 16.6875H0V22.125H1.875V16.6875ZM1.875 9.23438H0V14.8594H1.875V9.23438ZM1.875 1.82812H0V7.35938H1.875V1.82812ZM16.7344 16.7344H14.8594V22.125H16.7344V16.7344ZM16.7344 9.1875H14.8594V14.8594H16.7344V9.1875ZM16.7344 1.82812H14.8594V7.40625H16.7344V1.82812ZM24 16.7344H22.125V22.125H24V16.7344ZM24 9.1875H22.125V14.8594H24V9.1875ZM24 1.82812H22.125V7.40625H24V1.82812ZM22.125 14.8594H16.6875V16.7344H22.125V14.8594ZM14.9062 14.8594H9.1875V16.7344H14.9062V14.8594ZM7.40625 14.8594H1.82812V16.7344H7.40625V14.8594ZM22.125 22.125H16.6875V24H22.125V22.125ZM14.9062 22.125H9.1875V24H14.9062V22.125ZM7.40625 22.125H1.82812V24H7.40625V22.125ZM22.125 7.35938H16.7344V9.23438H22.125V7.35938ZM14.8594 7.35938H9.1875V9.23438H14.8594V7.35938ZM7.35938 7.35938H1.82812V9.23438H7.35938V7.35938ZM22.125 0H16.7344V1.875H22.125V0ZM14.8594 0H9.1875V1.875H14.8594V0ZM7.35938 0H1.82812V1.875H7.35938V0Z" fill="white" fill-opacity="0.5"/>
</svg>
