<svg width="24" height="18" viewBox="0 0 24 18" fill="none" xmlns="http://www.w3.org/2000/svg">
<path d="M0.326839 9.78911L7.46884 16.9311C7.9046 17.3669 8.6113 17.3669 9.04705 16.9311C9.48289 16.4953 9.48289 15.7888 9.04705 15.3529L3.81008 10.116L22.8841 10.116C23.5003 10.116 24 9.61628 24 9.00001C24 8.38383 23.5003 7.88407 22.8841 7.88407L3.81008 7.88407L9.04687 2.64711C9.48271 2.21127 9.48271 1.50474 9.04687 1.0689C8.82904 0.85116 8.54336 0.742065 8.25777 0.742065C7.97218 0.742065 7.68659 0.85116 7.46867 1.0689L0.326839 8.21091C-0.109001 8.64675 -0.109001 9.35327 0.326839 9.78911Z" fill="white" fill-opacity="0.25"/>
</svg>
