<svg width="16" height="12" viewBox="0 0 16 12" fill="none" xmlns="http://www.w3.org/2000/svg">
<path d="M15.7821 5.47384L11.0208 0.712505C10.7303 0.422004 10.2591 0.422004 9.96863 0.712505C9.67807 1.00307 9.67807 1.47408 9.96863 1.76464L13.4599 5.25595H0.743959C0.333115 5.25595 0 5.58907 0 5.99991C0 6.4107 0.333115 6.74387 0.743959 6.74387H13.4599L9.96875 10.2352C9.67819 10.5257 9.67819 10.9968 9.96875 11.2873C10.114 11.4325 10.3044 11.5052 10.4948 11.5052C10.6852 11.5052 10.8756 11.4325 11.0209 11.2873L15.7821 6.52598C16.0727 6.23542 16.0727 5.7644 15.7821 5.47384Z" fill="white"/>
</svg>
