<svg width="24" height="24" viewBox="0 0 24 24" fill="none" xmlns="http://www.w3.org/2000/svg">
<path d="M21.1875 0H2.8125C1.2616 0 0 1.2616 0 2.8125V21.1875C0 22.7384 1.2616 24 2.8125 24H21.1875C22.7384 24 24 22.7384 24 21.1875V2.8125C24 1.2616 22.7384 0 21.1875 0ZM2.8125 22.125C2.29559 22.125 1.875 21.7044 1.875 21.1875V13.0312C1.875 12.5143 2.29559 12.0938 2.8125 12.0938H10.9688C11.4857 12.0938 11.9062 12.5143 11.9062 13.0312V21.1875C11.9062 21.7044 11.4857 22.125 10.9688 22.125H2.8125ZM22.125 21.1875C22.125 21.7044 21.7044 22.125 21.1875 22.125H18.6824C18.7866 21.8315 18.8438 21.5162 18.8438 21.1875V12.1875H16.9688V21.1875C16.9688 21.7044 16.5482 22.125 16.0312 22.125H13.6199C13.7241 21.8315 13.7812 21.5162 13.7812 21.1875V13.0312C13.7812 11.4803 12.5197 10.2188 10.9688 10.2188H2.8125C2.48383 10.2188 2.16852 10.2759 1.875 10.3801V7.96875C1.875 7.45184 2.29559 7.03125 2.8125 7.03125H11.8125V5.15625H2.8125C2.48383 5.15625 2.16852 5.21338 1.875 5.31757V2.8125C1.875 2.29559 2.29559 1.875 2.8125 1.875H21.1875C21.7044 1.875 22.125 2.29559 22.125 2.8125V21.1875ZM13.6875 5.15625H18.8438V10.3125H16.9688V8.35712L14.9833 10.3425L13.6575 9.01685L15.6429 7.03125H13.6875V5.15625Z" fill="white" fill-opacity="0.5"/>
</svg>
